<svg width="124" height="99" viewBox="0 0 124 99" fill="none" xmlns="http://www.w3.org/2000/svg">
<g clip-path="url(#clip0_321_438)">
<path d="M38.5651 21.2611V22.5224H35.6895H32.814V25.0953V27.6681H34.0752H35.3364V38.2119V48.7557H37.5562H39.7759L39.7961 38.2321L39.8263 27.7186L61.6 27.6883L83.3637 27.6681V38.2119V48.7557H85.5834H87.8032V38.2119V27.6681H89.0644H90.3256V25.0953V22.5224H87.45H84.5744V21.2611V19.9999H61.5698H38.5651V21.2611Z" fill="white"/>
<path d="M42.3992 29.2825V30.1906H43.6604H44.9216V29.2825V28.3744H43.6604H42.3992V29.2825Z" fill="white"/>
<path d="M47.545 29.2825V30.1906H48.8063H50.0675V29.2825V28.3744H48.8063H47.545V29.2825Z" fill="white"/>
<path d="M52.6908 29.2825V30.1906H53.952H55.2132V29.2825V28.3744H53.952H52.6908V29.2825Z" fill="white"/>
<path d="M57.7357 29.2825V30.1906H58.9969H60.2582V29.2825V28.3744H58.9969H57.7357V29.2825Z" fill="white"/>
<path d="M62.8815 29.2825V30.1906H64.1427H65.4039V29.2825V28.3744H64.1427H62.8815V29.2825Z" fill="white"/>
<path d="M68.0272 29.2825V30.1906H69.2884H70.5497V29.2825V28.3744H69.2884H68.0272V29.2825Z" fill="white"/>
<path d="M73.0721 29.2825V30.1906H74.3838H75.6955V29.2825V28.3744H74.3838H73.0721V29.2825Z" fill="white"/>
<path d="M78.2179 29.2825V30.1906H79.4791H80.7403V29.2825V28.3744H79.4791H78.2179V29.2825Z" fill="white"/>
<path d="M21.3116 30.5438V32.1077H27.6682H34.0247V30.5438V28.9798H27.6682H21.3116V30.5438Z" fill="white"/>
<path d="M89.1149 30.5438V32.1077H95.5219H101.929V30.5438V28.9798H95.5219H89.1149V30.5438Z" fill="white"/>
<path d="M42.3992 39.8263V48.7557H43.6604H44.9216V39.8263V30.8969H43.6604H42.3992V39.8263Z" fill="white"/>
<path d="M47.545 39.8263V48.7557H48.8063H50.0675V39.8263V30.8969H48.8063H47.545V39.8263Z" fill="white"/>
<path d="M52.6908 39.8263V48.7557H53.952H55.2132V39.8263V30.8969H53.952H52.6908V39.8263Z" fill="white"/>
<path d="M57.7357 39.8263V48.7557H58.9969H60.2582V39.8263V30.8969H58.9969H57.7357V39.8263Z" fill="white"/>
<path d="M62.8815 39.8263V48.7557H64.1427H65.4039V39.8263V30.8969H64.1427H62.8815V39.8263Z" fill="white"/>
<path d="M68.0272 39.8263V48.7557H69.2884H70.5497V39.8263V30.8969H69.2884H68.0272V39.8263Z" fill="white"/>
<path d="M73.0721 39.8263V48.7557H74.3838H75.6955V39.8263V30.8969H74.3838H73.0721V39.8263Z" fill="white"/>
<path d="M78.2179 39.8263V48.7557H79.4791H80.7403V39.8263V30.8969H79.4791H78.2179V39.8263Z" fill="white"/>
<path d="M22.5225 40.7848V48.7557H28.2736H34.0248V40.7848V32.8139H28.2736H22.5225V40.7848Z" fill="white"/>
<path d="M89.1149 40.7848V48.7557H94.866H100.617V40.7848V32.8139H94.866H89.1149V40.7848Z" fill="white"/>
<path d="M20 51.0259V52.5898H61.5698H103.14V51.0259V49.462H61.5698H20V51.0259Z" fill="white"/>
<path d="M20.3027 59.7435C20.3027 60.3186 20.2623 60.2883 21.463 60.4598C21.9069 60.5204 22.3711 60.591 22.5022 60.6213L22.7242 60.6616V68.9756V77.2895L22.5022 77.34C22.3711 77.3703 21.9069 77.451 21.463 77.5115C20.2623 77.683 20.3027 77.6528 20.3027 78.2279V78.7223H25.1962H30.0897V78.2178C30.0897 77.7839 30.0594 77.7133 29.8677 77.6629C29.6458 77.6225 27.5168 77.3097 27.4159 77.3097C27.3857 77.3097 27.3655 75.8366 27.3655 74.0406V70.7716L28.0516 70.1864C28.4249 69.8635 28.7982 69.5406 28.8789 69.47C29.0202 69.359 29.5348 69.9846 32.6626 74.0306L36.2949 78.7223H39.5035H42.7019V78.2178C42.7019 77.7234 42.6918 77.7234 42.3286 77.6225C42.1167 77.5721 41.7636 77.4913 41.5416 77.451C41.3196 77.4106 41.0573 77.34 40.9665 77.2996C40.8252 77.229 32.6222 66.8567 32.3801 66.4431C32.3196 66.3522 36.4463 62.5989 38.4743 60.8937C38.6862 60.7121 38.999 60.6112 39.6952 60.5103C41.1885 60.2681 41.0876 60.3287 41.0876 59.7535V59.2491H37.7579H34.4283V59.7535C34.4283 60.2479 34.4384 60.2479 34.8117 60.3488C35.0135 60.4094 35.3767 60.48 35.6189 60.5204C35.851 60.5607 36.0729 60.6213 36.0931 60.6616C36.1234 60.7121 34.1761 62.508 31.7848 64.6572L27.4159 68.5619L27.3857 64.6471C27.3756 62.498 27.3857 60.7121 27.4159 60.6818C27.4462 60.6414 29.1009 60.3589 29.8677 60.258C29.8778 60.258 29.8879 60.026 29.8879 59.7535V59.2491H25.0953H20.3027V59.7435Z" fill="white"/>
<path d="M43.4082 59.7435C43.4082 60.3288 43.3275 60.2783 44.6694 60.4599C45.1134 60.5305 45.5775 60.6012 45.7087 60.6314L45.9307 60.6819V68.9858V77.2896L45.6582 77.3502C45.4968 77.3804 45.0327 77.4511 44.619 77.5116C43.3275 77.7033 43.4082 77.6529 43.4082 78.2078V78.7022L49.1897 78.7728C54.3253 78.8435 55.0922 78.8334 56.1213 78.682C59.7839 78.1372 61.6707 76.4724 61.933 73.5463C62.0541 72.1136 61.5698 70.7313 60.6516 69.9039C59.8343 69.1674 58.8556 68.7739 56.8276 68.3602C56.6157 68.3198 56.6662 68.2795 57.1908 68.0878C58.0888 67.7548 58.6337 67.4118 59.229 66.7761C60.2077 65.747 60.6214 64.3142 60.3792 62.8613C60.0664 61.0754 58.9162 60.0866 56.4644 59.5418C55.5058 59.3299 55.2233 59.3198 49.4419 59.2794L43.4082 59.2391V59.7435ZM54.3354 61.1561C55.304 61.6303 55.6471 62.4072 55.6572 64.0922C55.6572 65.6057 55.4756 66.2615 54.8601 66.8669C54.2446 67.4925 53.72 67.6236 51.9139 67.6236H50.4711V64.2335V60.8433L52.1661 60.8837C53.6796 60.924 53.9016 60.9442 54.3354 61.1561ZM55.0619 69.5205C55.8893 69.8232 56.313 70.2066 56.7267 71.0037L57.0798 71.6898L57.1555 72.0631L57.1908 72.4793L57.1908 73.3496C57.1807 74.7117 57.0496 74.7975 56.8377 75.3322C56.6863 75.7156 56.424 76.1091 56.1213 76.4118C55.3949 77.1383 55.0014 77.219 52.5294 77.1887L50.5215 77.1585L50.4912 73.1831L50.4711 69.2178L52.4587 69.2582C54.1942 69.2985 54.5372 69.3288 55.0619 69.5205Z" fill="white"/>
<path d="M63.285 61.9733V64.6975H63.9409C64.5563 64.6975 64.5967 64.6773 64.6068 64.4655C64.6169 63.9307 64.97 61.1661 65.0306 61.0955C65.1718 60.9643 66.1707 60.8735 68.3097 60.8029L70.4488 60.7322V69.0159C70.4488 73.5765 70.4084 77.3097 70.368 77.3097C70.2167 77.3097 67.8759 77.6124 67.6035 77.673C67.3411 77.7234 67.3209 77.7638 67.3209 78.2279V78.7223H72.719H78.117V78.2178C78.117 77.6528 78.2381 77.7032 76.6035 77.5115C76.1293 77.451 75.5744 77.3804 75.3726 77.3501L74.9892 77.2895V69.026V60.7625H75.6753C76.8053 60.7726 79.9634 60.9441 80.2459 61.0148C80.4982 61.0753 80.5083 61.0955 80.6899 62.8915L80.8816 64.6975H81.5172H82.1529V61.9733V59.2491H72.719H63.285V61.9733Z" fill="white"/>
<path d="M83.3637 59.7435C83.3637 60.3085 83.3133 60.2783 84.4736 60.4599C84.8873 60.5204 85.311 60.6011 85.4119 60.6213C85.5734 60.6718 85.5835 61.0249 85.5835 66.2615C85.5835 69.3994 85.6339 72.2851 85.6844 72.8602C85.8761 74.6663 86.4512 75.9376 87.551 76.997C88.8929 78.2784 90.5577 78.8737 93.1508 78.9847C97.328 79.1764 100.032 77.5519 100.94 74.3131C101.162 73.5463 101.162 73.3546 101.202 67.1191C101.223 62.8007 101.263 60.6919 101.334 60.6516C101.394 60.6213 101.848 60.5305 102.343 60.4599L103.241 60.3287V59.794V59.2491H100.012H96.7831V59.7536C96.7831 60.3287 96.7024 60.2783 98.0443 60.4599C98.4883 60.5204 98.9726 60.591 99.134 60.6213L99.4064 60.6818V66.8971C99.4064 73.5463 99.3863 73.8389 98.8919 74.8075C98.5488 75.4734 97.8224 76.1797 97.1262 76.5127C95.9053 77.0878 94.1194 77.1282 92.7068 76.5934C92.0207 76.3412 91.1732 75.5945 90.7999 74.9185C90.2449 73.8793 90.2248 73.6775 90.2248 66.8971V60.6617L90.4568 60.6213C90.5779 60.591 91.042 60.5204 91.486 60.4599C92.6867 60.2883 92.6463 60.3186 92.6463 59.7435V59.2491H88.005H83.3637V59.7435Z" fill="white"/>
</g>
<defs>
<clipPath id="clip0_321_438">
<rect width="83.2405" height="58.9999" fill="white" transform="matrix(1 0 0 -1 20 78.9999)"/>
</clipPath>
</defs>
</svg>
