<svg width="123" height="73" viewBox="0 0 123 73" fill="none" xmlns="http://www.w3.org/2000/svg">
<g clip-path="url(#clip0_321_713)">
<path d="M38.5651 21.2613V22.5225H35.6895H32.814V25.0954V27.6683H34.0752H35.3364V38.2121V48.7559H37.5562H39.7759L39.7961 38.2322L39.8263 27.7187L61.6 27.6884L83.3637 27.6683V38.2121V48.7559H85.5834H87.8032V38.2121V27.6683H89.0644H90.3256V25.0954V22.5225H87.45H84.5744V21.2613V20H61.5698H38.5651V21.2613Z" fill="white"/>
<path d="M42.3992 29.2826V30.1907H43.6604H44.9216V29.2826V28.3745H43.6604H42.3992V29.2826Z" fill="white"/>
<path d="M47.545 29.2826V30.1907H48.8063H50.0675V29.2826V28.3745H48.8063H47.545V29.2826Z" fill="white"/>
<path d="M52.6908 29.2826V30.1907H53.952H55.2132V29.2826V28.3745H53.952H52.6908V29.2826Z" fill="white"/>
<path d="M57.7357 29.2826V30.1907H58.9969H60.2582V29.2826V28.3745H58.9969H57.7357V29.2826Z" fill="white"/>
<path d="M62.8815 29.2826V30.1907H64.1427H65.4039V29.2826V28.3745H64.1427H62.8815V29.2826Z" fill="white"/>
<path d="M68.0272 29.2826V30.1907H69.2884H70.5497V29.2826V28.3745H69.2884H68.0272V29.2826Z" fill="white"/>
<path d="M73.0721 29.2826V30.1907H74.3838H75.6955V29.2826V28.3745H74.3838H73.0721V29.2826Z" fill="white"/>
<path d="M78.2179 29.2826V30.1907H79.4791H80.7403V29.2826V28.3745H79.4791H78.2179V29.2826Z" fill="white"/>
<path d="M21.3116 30.5439V32.1078H27.6682H34.0247V30.5439V28.98H27.6682H21.3116V30.5439Z" fill="white"/>
<path d="M89.1149 30.5439V32.1078H95.5219H101.929V30.5439V28.98H95.5219H89.1149V30.5439Z" fill="white"/>
<path d="M42.3992 39.8264V48.7559H43.6604H44.9216V39.8264V30.897H43.6604H42.3992V39.8264Z" fill="white"/>
<path d="M47.545 39.8264V48.7559H48.8063H50.0675V39.8264V30.897H48.8063H47.545V39.8264Z" fill="white"/>
<path d="M52.6908 39.8264V48.7559H53.952H55.2132V39.8264V30.897H53.952H52.6908V39.8264Z" fill="white"/>
<path d="M57.7357 39.8264V48.7559H58.9969H60.2582V39.8264V30.897H58.9969H57.7357V39.8264Z" fill="white"/>
<path d="M62.8815 39.8264V48.7559H64.1427H65.4039V39.8264V30.897H64.1427H62.8815V39.8264Z" fill="white"/>
<path d="M68.0272 39.8264V48.7559H69.2884H70.5497V39.8264V30.897H69.2884H68.0272V39.8264Z" fill="white"/>
<path d="M73.0721 39.8264V48.7559H74.3838H75.6955V39.8264V30.897H74.3838H73.0721V39.8264Z" fill="white"/>
<path d="M78.2179 39.8264V48.7559H79.4791H80.7403V39.8264V30.897H79.4791H78.2179V39.8264Z" fill="white"/>
<path d="M22.5225 40.7849V48.7559H28.2736H34.0248V40.7849V32.814H28.2736H22.5225V40.7849Z" fill="white"/>
<path d="M89.1149 40.7849V48.7559H94.866H100.617V40.7849V32.814H94.866H89.1149V40.7849Z" fill="white"/>
<path d="M20 51.0261V52.59H61.5698H103.14V51.0261V49.4621H61.5698H20V51.0261Z" fill="white"/>
</g>
<defs>
<clipPath id="clip0_321_713">
<rect width="83" height="33" fill="white" transform="matrix(1 0 0 -1 20 53)"/>
</clipPath>
</defs>
</svg>
