<svg width="30" height="30" viewBox="0 0 30 30" fill="none" xmlns="http://www.w3.org/2000/svg">
<path d="M27.9257 8.025C27.7772 7.43176 27.4748 6.88821 27.049 6.44926C26.6232 6.0103 26.0892 5.69148 25.5007 5.525C23.3507 5 14.7507 5 14.7507 5C14.7507 5 6.15071 5 4.00071 5.575C3.41227 5.74148 2.87819 6.0603 2.4524 6.49926C2.02661 6.93821 1.7242 7.48176 1.57571 8.075C1.18223 10.2569 0.989759 12.4704 1.00071 14.6875C0.986689 16.9213 1.17917 19.1516 1.57571 21.35C1.73941 21.9248 2.0486 22.4477 2.47339 22.8681C2.89819 23.2885 3.42424 23.5923 4.00071 23.75C6.15071 24.325 14.7507 24.325 14.7507 24.325C14.7507 24.325 23.3507 24.325 25.5007 23.75C26.0892 23.5835 26.6232 23.2647 27.049 22.8257C27.4748 22.3868 27.7772 21.8432 27.9257 21.25C28.3162 19.0845 28.5086 16.8879 28.5007 14.6875C28.5147 12.4537 28.3223 10.2234 27.9257 8.025V8.025Z" stroke="white" stroke-width="2" stroke-linecap="round" stroke-linejoin="round"/>
<path d="M12.1875 18.7751L19.375 14.6876L12.1875 10.6001V18.7751Z" stroke="white" stroke-width="2" stroke-linecap="round" stroke-linejoin="round"/>
</svg>
