<svg width="40" height="40" viewBox="0 0 40 40" fill="none" xmlns="http://www.w3.org/2000/svg">
<path d="M20 36.6668C19.6111 36.6668 19.2778 36.5557 19 36.3335C18.7222 36.1113 18.5139 35.8196 18.375 35.4585C17.8472 33.9029 17.1806 32.4446 16.375 31.0835C15.5972 29.7224 14.5 28.1252 13.0833 26.2918C11.6667 24.4585 10.5139 22.7085 9.62499 21.0418C8.76388 19.3752 8.33333 17.3613 8.33333 15.0002C8.33333 11.7502 9.45833 9.00016 11.7083 6.75016C13.9861 4.47238 16.75 3.3335 20 3.3335C23.25 3.3335 26 4.47238 28.25 6.75016C30.5278 9.00016 31.6667 11.7502 31.6667 15.0002C31.6667 17.5279 31.1805 19.639 30.2083 21.3335C29.2639 23.0002 28.1667 24.6529 26.9167 26.2918C25.4167 28.2918 24.2778 29.9585 23.5 31.2918C22.75 32.5974 22.125 33.9863 21.625 35.4585C21.4861 35.8474 21.2639 36.1529 20.9583 36.3752C20.6806 36.5696 20.3611 36.6668 20 36.6668ZM20 30.7085C20.4722 29.764 21 28.8335 21.5833 27.9168C22.1944 27.0002 23.0833 25.7779 24.25 24.2502C25.4444 22.6946 26.4167 21.264 27.1667 19.9585C27.9444 18.6252 28.3333 16.9724 28.3333 15.0002C28.3333 12.6946 27.5139 10.7363 25.875 9.12516C24.2639 7.48627 22.3056 6.66683 20 6.66683C17.6944 6.66683 15.7222 7.48627 14.0833 9.12516C12.4722 10.7363 11.6667 12.6946 11.6667 15.0002C11.6667 16.9724 12.0417 18.6252 12.7917 19.9585C13.5694 21.264 14.5556 22.6946 15.75 24.2502C16.9167 25.7779 17.7917 27.0002 18.375 27.9168C18.9861 28.8335 19.5278 29.764 20 30.7085ZM20 19.1668C21.1667 19.1668 22.1528 18.7641 22.9583 17.9585C23.7639 17.1529 24.1667 16.1668 24.1667 15.0002C24.1667 13.8335 23.7639 12.8474 22.9583 12.0418C22.1528 11.2363 21.1667 10.8335 20 10.8335C18.8333 10.8335 17.8472 11.2363 17.0417 12.0418C16.2361 12.8474 15.8333 13.8335 15.8333 15.0002C15.8333 16.1668 16.2361 17.1529 17.0417 17.9585C17.8472 18.7641 18.8333 19.1668 20 19.1668Z" fill="white"/>
</svg>
