<svg width="414" height="414" viewBox="0 0 414 414" fill="none" xmlns="http://www.w3.org/2000/svg">
<path d="M12.9375 97.1589C13.9406 101.855 15.4758 106.421 17.5135 110.768L30.586 111.964C32.1841 114.558 33.9986 117.011 36.0101 119.298L33.1453 131.807C36.7704 135.062 40.7444 137.906 44.9946 140.288L56.2316 133.774C59.1007 134.941 62.0625 135.867 65.0858 136.54L70.3027 148.781H84.9466L90.163 136.54C93.1866 135.867 96.148 134.941 99.0171 133.774L110.254 140.288L122.104 131.808L119.238 119.3C121.25 117.012 123.065 114.559 124.664 111.966L137.736 110.769C139.774 106.421 141.309 101.856 142.313 97.1603L132.421 88.6346V79.5529L142.313 71.0279C141.309 66.3324 139.775 61.7665 137.737 57.4188L124.664 56.2226C123.066 53.6295 121.252 51.1762 119.24 48.8888L122.104 36.3803C118.479 33.1255 114.506 30.2813 110.255 27.8997L99.0185 34.4138C96.1494 33.2461 93.188 32.3208 90.1644 31.6477L84.9473 19.4062H70.3034L65.0867 31.6473C62.0634 32.3209 59.1018 33.2463 56.2329 34.4138L44.9955 27.8997C40.7453 30.2809 36.7716 33.1247 33.1464 36.3792L36.0115 48.8879C33.9995 51.175 32.1849 53.6284 30.587 56.2218L17.5141 57.4181C15.4759 61.7657 13.9405 66.3317 12.9375 71.0272L22.8282 79.5522V88.6346L12.9375 97.1589ZM77.625 58.2188C82.7427 58.2188 87.7452 59.7363 92.0005 62.5795C96.2557 65.4226 99.5718 69.4637 101.53 74.1916C103.489 78.9201 104.001 84.1227 103.003 89.1418C102.005 94.1608 99.5401 98.7714 95.9217 102.39C92.3027 106.009 87.6921 108.474 82.673 109.471C77.654 110.47 72.4514 109.958 67.7231 107.999C62.995 106.041 58.9539 102.724 56.1107 98.4692C53.2675 94.214 51.75 89.2115 51.75 84.0938C51.75 77.231 54.4761 70.6498 59.3286 65.7974C64.1811 60.9449 70.7623 58.2188 77.625 58.2188Z" fill="#002353" fill-opacity="0.3"/>
<path d="M84.0938 349.312H32.3438V401.063H84.0938V349.312Z" fill="#002353" fill-opacity="0.3"/>
<path d="M181.125 329.906H129.375V401.063H181.125V329.906Z" fill="#002353" fill-opacity="0.3"/>
<path d="M375.188 245.812H323.438V401.063H375.188V245.812Z" fill="#002353" fill-opacity="0.3"/>
<path d="M238.561 158.636C238.151 157.879 237.594 157.212 236.923 156.672C236.252 156.133 235.48 155.734 234.653 155.496L189.372 142.558L185.816 155.003L217.516 164.061L22.3248 292.154L29.4253 302.969L221.413 176.977L210.772 211.567L223.134 215.37L239.056 163.62C239.31 162.798 239.397 161.933 239.312 161.078C239.226 160.221 238.971 159.391 238.561 158.636Z" fill="#002353" fill-opacity="0.3"/>
<path d="M294.328 103.08L288.985 135.844L316.969 120.377L344.952 135.844L339.61 103.08L362.25 79.8758L330.961 75.0955L316.969 45.2812L302.977 75.0955L271.688 79.8758L294.328 103.08Z" fill="#002353" fill-opacity="0.3"/>
<path d="M329.389 167.012C325.321 167.732 321.198 168.094 317.067 168.093H316.969C312.85 168.095 308.739 167.737 304.683 167.024L302.459 179.866C307.302 180.564 312.182 180.985 317.074 181.125C321.956 181.125 326.83 180.694 331.637 179.84L329.389 167.012Z" fill="#002353" fill-opacity="0.3"/>
<path d="M352.578 158.478L359.066 169.754C367.556 164.802 375.116 158.404 381.403 150.849L371.498 142.462C366.171 148.862 359.769 154.282 352.578 158.478Z" fill="#002353" fill-opacity="0.3"/>
<path d="M371.325 50.1554C376.692 56.5385 380.9 63.8112 383.76 71.6448L395.902 67.1394C392.521 57.8806 387.545 49.2855 381.199 41.7437L371.325 50.1554Z" fill="#002353" fill-opacity="0.3"/>
<path d="M302.13 13.0133C292.466 14.7497 283.186 18.1837 274.72 23.1563L281.233 34.4193C288.392 30.2143 296.238 27.3103 304.41 25.8418L302.13 13.0133Z" fill="#002353" fill-opacity="0.3"/>
<path d="M396.019 125.389C399.385 116.036 401.091 106.167 401.06 96.2267L398.205 96.1757L388.125 96.4172C388.137 104.775 386.693 113.072 383.858 120.935L396.019 125.389Z" fill="#002353" fill-opacity="0.3"/>
<path d="M358.781 22.9087C350.287 17.9842 340.984 14.608 331.308 12.9375L329.116 25.7787C337.296 27.194 345.161 30.0485 352.344 34.2096L358.781 22.9087Z" fill="#002353" fill-opacity="0.3"/>
<path d="M237.98 125.541L250.127 121.062C247.277 113.208 245.818 104.918 245.816 96.5627L232.878 96.589C232.883 106.463 234.609 116.26 237.98 125.541Z" fill="#002353" fill-opacity="0.3"/>
<path d="M262.521 142.564L252.628 150.963C258.929 158.51 266.501 164.896 275 169.836L281.469 158.548C274.269 154.365 267.857 148.956 262.521 142.564Z" fill="#002353" fill-opacity="0.3"/>
<path d="M237.866 67.6105L250.032 72.0394C252.849 64.1872 257.018 56.8887 262.351 50.4741L252.42 42.1125C246.119 49.6985 241.194 58.3278 237.866 67.6105Z" fill="#002353" fill-opacity="0.3"/>
</svg>
