<svg width="308" height="180" viewBox="0 0 308 180" fill="none" xmlns="http://www.w3.org/2000/svg">
<path d="M0 182.667V147.054C0 139.782 1.81806 133.045 5.45417 126.842C9.09028 120.639 14.1167 115.933 20.5333 112.725C23.5278 111.228 26.4153 109.838 29.1958 108.554C32.1903 107.271 35.2917 106.095 38.5 105.025V182.667H0ZM51.3333 92.8334C40.6389 92.8334 31.5486 89.0903 24.0625 81.6042C16.5764 74.1181 12.8333 65.0278 12.8333 54.3334C12.8333 43.6389 16.5764 34.5487 24.0625 27.0625C31.5486 19.5764 40.6389 15.8334 51.3333 15.8334C62.0278 15.8334 71.1181 19.5764 78.6042 27.0625C86.0903 34.5487 89.8333 43.6389 89.8333 54.3334C89.8333 65.0278 86.0903 74.1181 78.6042 81.6042C71.1181 89.0903 62.0278 92.8334 51.3333 92.8334ZM51.3333 67.1667C54.9694 67.1667 57.9639 65.9903 60.3167 63.6375C62.8833 61.0709 64.1667 57.9695 64.1667 54.3334C64.1667 50.6973 62.8833 47.7028 60.3167 45.35C57.9639 42.7834 54.9694 41.5 51.3333 41.5C47.6972 41.5 44.5958 42.7834 42.0292 45.35C39.6764 47.7028 38.5 50.6973 38.5 54.3334C38.5 57.9695 39.6764 61.0709 42.0292 63.6375C44.5958 65.9903 47.6972 67.1667 51.3333 67.1667ZM51.3333 182.667V146.733C51.3333 139.461 53.1514 132.831 56.7875 126.842C60.6375 120.639 65.6639 115.933 71.8667 112.725C85.1278 106.094 98.6028 101.175 112.292 97.9667C125.981 94.5445 139.883 92.8334 154 92.8334C168.117 92.8334 182.019 94.5445 195.708 97.9667C209.397 101.175 222.872 106.094 236.133 112.725C242.336 115.933 247.256 120.639 250.892 126.842C254.742 132.831 256.667 139.461 256.667 146.733V182.667H51.3333ZM77 157H231V146.733C231 144.381 230.358 142.242 229.075 140.317C228.006 138.392 226.508 136.894 224.583 135.825C213.033 130.05 201.376 125.772 189.613 122.992C177.849 119.997 165.978 118.5 154 118.5C142.022 118.5 130.151 119.997 118.388 122.992C106.624 125.772 94.9667 130.05 83.4167 135.825C81.4917 136.894 79.8875 138.392 78.6042 140.317C77.5347 142.242 77 144.381 77 146.733V157ZM154 80.0001C139.883 80.0001 127.799 74.9737 117.746 64.9209C107.693 54.8681 102.667 42.7834 102.667 28.6667C102.667 14.55 107.693 2.46532 117.746 -7.58745C127.799 -17.6402 139.883 -22.6666 154 -22.6666C168.117 -22.6666 180.201 -17.6402 190.254 -7.58745C200.307 2.46532 205.333 14.55 205.333 28.6667C205.333 42.7834 200.307 54.8681 190.254 64.9209C180.201 74.9737 168.117 80.0001 154 80.0001ZM154 54.3334C161.058 54.3334 167.047 51.8737 171.967 46.9542C177.1 41.8209 179.667 35.7251 179.667 28.6667C179.667 21.6084 177.1 15.6195 171.967 10.7C167.047 5.56671 161.058 3.00004 154 3.00004C146.942 3.00004 140.846 5.56671 135.713 10.7C130.793 15.6195 128.333 21.6084 128.333 28.6667C128.333 35.7251 130.793 41.8209 135.713 46.9542C140.846 51.8737 146.942 54.3334 154 54.3334ZM256.667 92.8334C245.972 92.8334 236.882 89.0903 229.396 81.6042C221.91 74.1181 218.167 65.0278 218.167 54.3334C218.167 43.6389 221.91 34.5487 229.396 27.0625C236.882 19.5764 245.972 15.8334 256.667 15.8334C267.361 15.8334 276.451 19.5764 283.938 27.0625C291.424 34.5487 295.167 43.6389 295.167 54.3334C295.167 65.0278 291.424 74.1181 283.938 81.6042C276.451 89.0903 267.361 92.8334 256.667 92.8334ZM256.667 67.1667C260.303 67.1667 263.297 65.9903 265.65 63.6375C268.217 61.0709 269.5 57.9695 269.5 54.3334C269.5 50.6973 268.217 47.7028 265.65 45.35C263.297 42.7834 260.303 41.5 256.667 41.5C253.031 41.5 249.929 42.7834 247.363 45.35C245.01 47.7028 243.833 50.6973 243.833 54.3334C243.833 57.9695 245.01 61.0709 247.363 63.6375C249.929 65.9903 253.031 67.1667 256.667 67.1667ZM269.5 182.667V105.025C272.708 106.095 275.703 107.271 278.483 108.554C281.478 109.838 284.472 111.228 287.467 112.725C293.883 115.933 298.91 120.639 302.546 126.842C306.182 133.045 308 139.782 308 147.054V182.667H269.5Z" fill="#002F6C"/>
</svg>
