<svg width="40" height="40" viewBox="0 0 40 40" fill="none" xmlns="http://www.w3.org/2000/svg">
<g clip-path="url(#clip0_102_21)">
<path d="M20.6414 8.63351L32.2375 11.7054L20.6401 15.0935L8.31729 11.7054L20.6414 8.63224M20.6564 6.05975C20.6086 6.05953 20.561 6.065 20.5146 6.07607L0.577337 11.0453C0.451958 11.0765 0.340401 11.1483 0.260251 11.2496C0.180102 11.3509 0.135848 11.476 0.134413 11.6052C0.132977 11.7344 0.174484 11.8603 0.252362 11.9634C0.330241 12.0665 0.440119 12.1408 0.564776 12.1747L20.5008 17.6534C20.5511 17.6674 20.603 17.6746 20.6551 17.6748C20.7104 17.6744 20.7653 17.6664 20.8183 17.6509L39.5797 12.1722C39.7043 12.1382 39.8141 12.0637 39.8919 11.9606C39.9697 11.8574 40.011 11.7313 40.0095 11.6022C40.0079 11.473 39.9634 11.348 39.8832 11.2467C39.8029 11.1455 39.6913 11.0738 39.5659 11.0428L20.8057 6.07105C20.7569 6.05854 20.7067 6.05224 20.6564 6.05225V6.05975Z" fill="black"/>
<path d="M28.5118 33.9466H11.718C10.4172 34.0124 9.14315 33.5612 8.17372 32.6914C7.20428 31.8216 6.61805 30.6038 6.54287 29.3036V18.2219C6.54287 17.8891 6.6751 17.5699 6.91043 17.3346C7.14576 17.0992 7.46492 16.967 7.79773 16.967C8.13054 16.967 8.44978 17.0992 8.68511 17.3346C8.92044 17.5699 9.05259 17.8891 9.05259 18.2219V29.3036C9.13134 29.9363 9.45403 30.5134 9.95185 30.9118C10.4497 31.3102 11.0833 31.4986 11.718 31.4369H28.5118C29.1467 31.4993 29.7809 31.3112 30.279 30.9127C30.7772 30.5141 31.0999 29.9367 31.1784 29.3036V18.2219C31.1784 17.8891 31.3106 17.5699 31.5459 17.3346C31.7812 17.0992 32.1004 16.967 32.4332 16.967C32.766 16.967 33.0852 17.0992 33.3205 17.3346C33.5559 17.5699 33.6881 17.8891 33.6881 18.2219V29.3036C33.6129 30.6041 33.0265 31.822 32.0568 32.6918C31.0871 33.5616 29.8127 34.0127 28.5118 33.9466Z" fill="black"/>
<path d="M1.25486 22.9164C0.922052 22.9164 0.602891 22.7842 0.367559 22.5489C0.132227 22.3135 0 21.9944 0 21.6616V16.3811C0 16.0483 0.132227 15.7291 0.367559 15.4938C0.602891 15.2584 0.922052 15.1262 1.25486 15.1262C1.58767 15.1262 1.90683 15.2584 2.14217 15.4938C2.3775 15.7291 2.50973 16.0483 2.50973 16.3811V21.6616C2.50973 21.9944 2.3775 22.3135 2.14217 22.5489C1.90683 22.7842 1.58767 22.9164 1.25486 22.9164Z" fill="black"/>
</g>
<defs>
<clipPath id="clip0_102_21">
<rect width="40" height="40" fill="white"/>
</clipPath>
</defs>
</svg>
