<svg width="40" height="40" viewBox="0 0 40 40" fill="none" xmlns="http://www.w3.org/2000/svg">
<path d="M31.6666 29.9999C31.2246 29.9999 30.8007 29.8243 30.4881 29.5118C30.1756 29.1992 30 28.7753 30 28.3333C30 27.8912 30.1756 27.4673 30.4881 27.1547C30.8007 26.8422 31.2246 26.6666 31.6666 26.6666C32.1087 26.6666 32.5326 26.491 32.8452 26.1784C33.1577 25.8659 33.3333 25.4419 33.3333 24.9999V11.6666C33.3333 11.2246 33.1577 10.8006 32.8452 10.4881C32.5326 10.1755 32.1087 9.99992 31.6666 9.99992H19.025L18.24 7.77659C18.1246 7.45166 17.9114 7.17048 17.6296 6.9717C17.3479 6.77293 17.0115 6.66634 16.6666 6.66659H8.33331C7.89129 6.66659 7.46736 6.84218 7.1548 7.15474C6.84224 7.4673 6.66665 7.89122 6.66665 8.33325V24.9999C6.66665 25.4419 6.84224 25.8659 7.1548 26.1784C7.46736 26.491 7.89129 26.6666 8.33331 26.6666C8.77534 26.6666 9.19926 26.8422 9.51182 27.1547C9.82438 27.4673 9.99998 27.8912 9.99998 28.3333C9.99998 28.7753 9.82438 29.1992 9.51182 29.5118C9.19926 29.8243 8.77534 29.9999 8.33331 29.9999C7.00723 29.9999 5.73546 29.4731 4.79778 28.5355C3.8601 27.5978 3.33331 26.326 3.33331 24.9999L3.33331 8.33325C3.33331 7.00717 3.8601 5.7354 4.79778 4.79772C5.73546 3.86004 7.00723 3.33325 8.33331 3.33325L16.6666 3.33325C18.8433 3.33325 20.695 4.72492 21.3833 6.66659H31.6666C32.9927 6.66659 34.2645 7.19337 35.2022 8.13105C36.1399 9.06873 36.6666 10.3405 36.6666 11.6666V24.9999C36.6666 26.326 36.1399 27.5978 35.2022 28.5355C34.2645 29.4731 32.9927 29.9999 31.6666 29.9999ZM23.3166 29.8399C21.5934 30.9706 19.5124 31.4228 17.4753 31.1093C15.4382 30.7958 13.5895 29.7388 12.2859 28.1423C10.9824 26.5458 10.3164 24.5231 10.4166 22.4645C10.5167 20.4058 11.3759 18.4573 12.8283 16.9949C14.2884 15.5335 16.2393 14.6664 18.3025 14.562C20.3657 14.4576 22.3941 15.1232 23.9943 16.4298C25.5944 17.7364 26.6522 19.5908 26.9625 21.6332C27.2727 23.6756 26.8133 25.7604 25.6733 27.4833L30.5066 32.3166C30.81 32.6311 30.9777 33.0523 30.9736 33.4893C30.9695 33.9263 30.7939 34.3442 30.4847 34.653C30.1755 34.9618 29.7573 35.1367 29.3203 35.1402C28.8833 35.1437 28.4624 34.9754 28.1483 34.6716L23.315 29.8399H23.3166ZM22.2566 26.4233C22.7211 25.9588 23.0895 25.4074 23.3409 24.8006C23.5922 24.1938 23.7216 23.5434 23.7216 22.8866C23.7216 22.2298 23.5922 21.5794 23.3409 20.9726C23.0895 20.3657 22.7211 19.8144 22.2566 19.3499C21.7922 18.8855 21.2408 18.5171 20.634 18.2657C20.0272 18.0144 19.3768 17.885 18.72 17.885C18.0632 17.885 17.4128 18.0144 16.8059 18.2657C16.1991 18.5171 15.6478 18.8855 15.1833 19.3499C14.2456 20.2877 13.7187 21.5596 13.7187 22.8858C13.7187 24.2119 14.2456 25.4838 15.1833 26.4216C16.1211 27.3593 17.393 27.8862 18.7191 27.8862C20.0453 27.8862 21.3172 27.3593 22.255 26.4216L22.2566 26.4233Z" fill="white"/>
</svg>
