<svg width="41" height="40" viewBox="0 0 41 40" fill="none" xmlns="http://www.w3.org/2000/svg">
<g clip-path="url(#clip0_115_215)">
<path d="M25.5833 8.33317C27.2112 8.65078 28.7073 9.44693 29.8801 10.6197C31.0529 11.7925 31.8491 13.2886 32.1667 14.9165M25.5833 1.6665C28.9655 2.04223 32.1193 3.5568 34.5271 5.96152C36.9348 8.36624 38.4533 11.5182 38.8333 14.8998M37.1667 28.1998V33.1998C37.1686 33.664 37.0735 34.1235 36.8875 34.5487C36.7016 34.974 36.4288 35.3558 36.0868 35.6696C35.7448 35.9834 35.341 36.2223 34.9012 36.371C34.4615 36.5197 33.9956 36.5749 33.5333 36.5332C28.4047 35.9759 23.4783 34.2234 19.15 31.4165C15.123 28.8576 11.7089 25.4435 9.15 21.4165C6.3333 17.0685 4.58041 12.1182 4.03333 6.9665C3.99168 6.50562 4.04646 6.0411 4.19417 5.60254C4.34188 5.16398 4.57929 4.76099 4.89128 4.41921C5.20327 4.07743 5.58301 3.80435 6.00632 3.61737C6.42963 3.43039 6.88723 3.33361 7.35 3.33317H12.35C13.1588 3.32521 13.943 3.61163 14.5563 4.13906C15.1696 4.66648 15.5701 5.39891 15.6833 6.19984C15.8944 7.79995 16.2858 9.37105 16.85 10.8832C17.0742 11.4797 17.1228 12.128 16.9898 12.7513C16.8569 13.3746 16.5481 13.9467 16.1 14.3998L13.9833 16.5165C16.3559 20.6891 19.8108 24.1439 23.9833 26.5165L26.1 24.3998C26.5531 23.9517 27.1253 23.6429 27.7485 23.51C28.3718 23.3771 29.0201 23.4256 29.6167 23.6498C31.1288 24.2141 32.6999 24.6055 34.3 24.8165C35.1096 24.9307 35.849 25.3385 36.3776 25.9623C36.9061 26.5861 37.1869 27.3825 37.1667 28.1998Z" stroke="white" stroke-width="3.5" stroke-linecap="round" stroke-linejoin="round"/>
</g>
<defs>
<clipPath id="clip0_115_215">
<rect width="40" height="40" fill="white" transform="translate(0.5)"/>
</clipPath>
</defs>
</svg>
