<svg width="1102" height="512" viewBox="0 0 1102 512" fill="none" xmlns="http://www.w3.org/2000/svg">
<path d="M608 580.5C608 580.5 684.453 393.043 768.537 404.5C852.62 415.958 868.872 470.856 921 477.5C973.128 484.144 1027 382.5 1027 382.5" stroke="#002353" stroke-opacity="0.3" stroke-width="2" stroke-dasharray="20 20"/>
<path d="M1028.8 361.92L1034.85 384.498L1044.58 367.472M1068.71 313.826L998.96 365.514L1028.8 361.92L1068.71 313.826ZM1068.71 313.826L1074.95 378.154L1028.8 361.92L1068.71 313.826ZM1068.71 313.826L1028.8 361.92L1068.71 313.826Z" stroke="#002353" stroke-opacity="0.3" stroke-width="1.5" stroke-linecap="round" stroke-linejoin="round"/>
<path d="M434 530.645C434 530.645 315.181 528.127 233.874 513.618C46.3137 480.149 -3.49766 389.172 1 233C5.49766 76.8283 290 -26.5 290 -26.5" stroke="#002353" stroke-opacity="0.3" stroke-width="2" stroke-dasharray="20 20"/>
</svg>
