<svg width="40" height="40" viewBox="0 0 40 40" fill="none" xmlns="http://www.w3.org/2000/svg">
<path d="M36.25 7.5C36.5815 7.5 36.8995 7.6317 37.1339 7.86612C37.3683 8.10054 37.5 8.41848 37.5 8.75V31.25C37.5 31.5815 37.3683 31.8995 37.1339 32.1339C36.8995 32.3683 36.5815 32.5 36.25 32.5H3.75C3.41848 32.5 3.10054 32.3683 2.86612 32.1339C2.6317 31.8995 2.5 31.5815 2.5 31.25V8.75C2.5 8.41848 2.6317 8.10054 2.86612 7.86612C3.10054 7.6317 3.41848 7.5 3.75 7.5H36.25ZM3.75 5C2.75544 5 1.80161 5.39509 1.09835 6.09835C0.395088 6.80161 0 7.75544 0 8.75V31.25C0 32.2446 0.395088 33.1984 1.09835 33.9017C1.80161 34.6049 2.75544 35 3.75 35H36.25C37.2446 35 38.1984 34.6049 38.9016 33.9017C39.6049 33.1984 40 32.2446 40 31.25V8.75C40 7.75544 39.6049 6.80161 38.9016 6.09835C38.1984 5.39509 37.2446 5 36.25 5H3.75Z" fill="black"/>
<path d="M17.5001 13.7498C17.5001 13.4183 17.6318 13.1003 17.8662 12.8659C18.1007 12.6315 18.4186 12.4998 18.7501 12.4998H31.2501C31.5816 12.4998 31.8996 12.6315 32.134 12.8659C32.3684 13.1003 32.5001 13.4183 32.5001 13.7498C32.5001 14.0813 32.3684 14.3993 32.134 14.6337C31.8996 14.8681 31.5816 14.9998 31.2501 14.9998H18.7501C18.4186 14.9998 18.1007 14.8681 17.8662 14.6337C17.6318 14.3993 17.5001 14.0813 17.5001 13.7498ZM13.7601 11.6148C13.8765 11.7309 13.9689 11.8688 14.0319 12.0207C14.0949 12.1726 14.1273 12.3354 14.1273 12.4998C14.1273 12.6642 14.0949 12.827 14.0319 12.9789C13.9689 13.1307 13.8765 13.2687 13.7601 13.3848L10.0101 17.1348C9.894 17.2512 9.75606 17.3436 9.6042 17.4066C9.45234 17.4696 9.28953 17.502 9.12511 17.502C8.9607 17.502 8.79789 17.4696 8.64603 17.4066C8.49417 17.3436 8.35623 17.2512 8.24011 17.1348L6.99011 15.8848C6.87389 15.7686 6.7817 15.6306 6.71881 15.4788C6.65591 15.3269 6.62354 15.1642 6.62354 14.9998C6.62354 14.6679 6.7554 14.3495 6.99011 14.1148C7.22483 13.8801 7.54318 13.7482 7.87511 13.7482C8.20705 13.7482 8.5254 13.8801 8.76011 14.1148L9.12511 14.4823L11.9901 11.6148C12.1062 11.4984 12.2442 11.406 12.396 11.343C12.5479 11.28 12.7107 11.2476 12.8751 11.2476C13.0395 11.2476 13.2023 11.28 13.3542 11.343C13.5061 11.406 13.644 11.4984 13.7601 11.6148ZM17.5001 23.7498C17.5001 23.4183 17.6318 23.1003 17.8662 22.8659C18.1007 22.6315 18.4186 22.4998 18.7501 22.4998H31.2501C31.5816 22.4998 31.8996 22.6315 32.134 22.8659C32.3684 23.1003 32.5001 23.4183 32.5001 23.7498C32.5001 24.0813 32.3684 24.3993 32.134 24.6337C31.8996 24.8681 31.5816 24.9998 31.2501 24.9998H18.7501C18.4186 24.9998 18.1007 24.8681 17.8662 24.6337C17.6318 24.3993 17.5001 24.0813 17.5001 23.7498ZM13.7601 21.6148C13.8765 21.7309 13.9689 21.8688 14.0319 22.0207C14.0949 22.1726 14.1273 22.3354 14.1273 22.4998C14.1273 22.6642 14.0949 22.827 14.0319 22.9789C13.9689 23.1307 13.8765 23.2687 13.7601 23.3848L10.0101 27.1348C9.894 27.2512 9.75606 27.3436 9.6042 27.4066C9.45234 27.4696 9.28953 27.502 9.12511 27.502C8.9607 27.502 8.79789 27.4696 8.64603 27.4066C8.49417 27.3436 8.35623 27.2512 8.24011 27.1348L6.99011 25.8848C6.87389 25.7686 6.7817 25.6306 6.71881 25.4788C6.65591 25.3269 6.62354 25.1642 6.62354 24.9998C6.62354 24.8354 6.65591 24.6727 6.71881 24.5208C6.7817 24.369 6.87389 24.231 6.99011 24.1148C7.10633 23.9986 7.24431 23.9064 7.39616 23.8435C7.548 23.7806 7.71075 23.7482 7.87511 23.7482C8.03947 23.7482 8.20222 23.7806 8.35407 23.8435C8.50592 23.9064 8.64389 23.9986 8.76011 24.1148L9.12511 24.4823L11.9901 21.6148C12.1062 21.4984 12.2442 21.406 12.396 21.343C12.5479 21.28 12.7107 21.2476 12.8751 21.2476C13.0395 21.2476 13.2023 21.28 13.3542 21.343C13.5061 21.406 13.644 21.4984 13.7601 21.6148Z" fill="black"/>
</svg>
