<svg width="41" height="40" viewBox="0 0 41 40" fill="none" xmlns="http://www.w3.org/2000/svg">
<path fill-rule="evenodd" clip-rule="evenodd" d="M16.2891 13.0602C16.2891 7.21055 21.0394 2.5 27.0625 2.5C33.0546 2.5 38 7.16474 38 13.0445C38 18.9212 33.0578 23.607 27.0625 23.607C25.7487 23.607 24.6413 23.4389 23.5017 23.0316C23.4622 23.0594 23.4184 23.0897 23.3693 23.1231C23.1313 23.2855 22.7193 23.5538 22.2407 23.6569C21.9852 23.7122 21.7507 23.6887 21.6428 23.676C21.5045 23.6598 21.3652 23.6325 21.2431 23.6054C21.0062 23.5528 20.7365 23.4783 20.5054 23.4145L20.4877 23.4096C20.3594 23.3742 20.2419 23.3419 20.1354 23.3138C20.169 23.3882 20.2087 23.4715 20.2547 23.5655C20.2712 23.5994 20.2893 23.636 20.3085 23.6748C20.3976 23.855 20.5094 24.0812 20.5915 24.2828C20.644 24.4117 20.7031 24.5743 20.7421 24.7516C20.7787 24.9177 20.8189 25.1872 20.7538 25.4926C20.6772 25.852 20.4871 26.1728 20.3393 26.389C20.1712 26.6348 19.9609 26.8841 19.7288 27.1117C19.3176 27.5151 18.6204 28.0648 17.7931 28.1611C17.2726 28.2218 16.8128 28.0639 16.5398 27.9557C16.4331 27.9134 16.3293 27.8677 16.236 27.8251C16.2417 27.8386 16.2473 27.8521 16.2528 27.8656C16.343 28.0853 16.493 28.4775 16.4842 28.9266C16.4667 29.9903 15.8435 30.6351 15.405 31.0389C15.1625 31.2657 14.8518 31.5473 14.4683 31.7546C14.0426 31.9846 13.5814 32.0977 13.0553 32.0913C12.6443 32.0861 12.201 31.9907 11.9203 31.9302C11.8853 31.9227 11.8527 31.9157 11.8231 31.9094C11.659 31.875 11.5489 31.8544 11.4651 31.8447C11.4591 31.844 11.4536 31.8434 11.4485 31.8429C11.4491 31.8475 11.4497 31.8523 11.4503 31.8573C11.4663 31.9867 11.4815 32.0704 11.5007 32.176C11.5189 32.2764 11.5408 32.3966 11.5703 32.5946C11.6442 33.0903 11.807 34.2722 10.9382 35.124C10.771 35.2887 10.6409 35.4257 10.469 35.6068C10.4073 35.6718 10.3402 35.7425 10.2641 35.8221C9.98175 36.1177 9.6099 36.4994 8.99718 37.0962L8.994 37.0993L8.99139 37.1018C8.50117 37.5732 7.9038 37.516 7.65718 37.4682C7.37839 37.4141 7.12949 37.2983 6.95046 37.203C6.57718 37.0043 6.17697 36.7128 5.82668 36.435C5.11412 35.8697 4.39235 35.1864 4.0967 34.8773C3.64462 34.4047 3 33.4693 3 32.3492C3.00025 31.9527 3.08396 31.5598 3.24568 31.1978C3.40346 30.8446 3.63205 30.5276 3.91719 30.2664C4.09009 30.0957 4.74471 29.3596 5.75067 28.2026C6.75029 27.0529 8.0422 25.5517 9.41517 23.9498C11.9417 21.002 14.7372 17.72 16.4794 15.6745C16.2885 14.7835 16.2888 13.8984 16.289 13.1422C16.2891 13.1147 16.2891 13.0873 16.2891 13.0602ZM19.706 23.2163C19.7068 23.2164 19.7078 23.2165 19.7088 23.2166C19.6907 23.2156 19.6883 23.2142 19.706 23.2163ZM27.0625 5C22.3825 5 18.7891 8.62852 18.7891 13.0602C18.7891 14.1168 18.801 14.8835 19.0401 15.5718C19.1856 15.9906 19.0984 16.4551 18.811 16.7926C18.6839 16.9418 18.5489 17.1002 18.4069 17.267C16.6667 19.3101 13.8544 22.612 11.3133 25.5767C9.93925 27.18 8.64278 28.6865 7.63727 29.843C6.65972 30.9673 5.89883 31.8292 5.64016 32.0781C5.62969 32.0881 5.61904 32.098 5.60822 32.1077C5.57419 32.1383 5.54697 32.1756 5.52832 32.2174C5.50973 32.259 5.50008 32.3041 5.5 32.3497C5.50009 32.4327 5.5281 32.565 5.61337 32.735C5.69746 32.9026 5.81003 33.0517 5.9033 33.1493C6.12327 33.3792 6.76088 33.985 7.38035 34.4764C7.52903 34.5943 7.66511 34.6964 7.78527 34.7808C8.07512 34.4914 8.28475 34.2749 8.45658 34.0951C8.51831 34.0305 8.57726 33.9683 8.6349 33.9076C8.79911 33.7345 8.95259 33.5728 9.12881 33.3974C9.13286 33.345 9.13556 33.2175 9.09765 32.9632C9.09095 32.9183 9.07689 32.8358 9.06022 32.7379C9.02831 32.5505 8.98683 32.307 8.96915 32.1639C8.93916 31.9212 8.8847 31.4138 9.09326 30.9271C9.27107 30.5122 9.5169 30.1153 9.91417 29.8199C10.3001 29.5328 10.7074 29.4373 10.9612 29.3838C11.2662 29.3197 11.5545 29.3383 11.7532 29.3613C11.9618 29.3855 12.171 29.428 12.337 29.4628C12.3594 29.4675 12.3812 29.4721 12.4023 29.4766C12.7526 29.5502 12.9396 29.5896 13.0857 29.5915C13.2077 29.5929 13.2465 29.5732 13.2797 29.5552C13.3533 29.5154 13.4593 29.4356 13.7007 29.2098C13.7033 29.2075 13.7058 29.2051 13.7084 29.2027C13.8827 29.0423 13.9473 28.9621 13.9748 28.9176C13.9758 28.9161 13.9766 28.9146 13.9774 28.9133C13.9701 28.8916 13.9584 28.8596 13.9403 28.8155C13.9141 28.7518 13.8856 28.6879 13.8476 28.6029C13.8398 28.5856 13.8317 28.5675 13.8232 28.5483C13.777 28.4448 13.7195 28.3143 13.6667 28.1757C13.5663 27.912 13.4379 27.5077 13.4646 27.0428C13.4942 26.5245 13.7093 26.0357 14.1176 25.6359C14.5779 25.185 15.1349 25.0192 15.6653 25.0411C16.1277 25.0602 16.5367 25.2207 16.7977 25.3332C16.914 25.3834 17.0317 25.4383 17.1291 25.4837C17.1472 25.4921 17.1645 25.5002 17.1811 25.5079C17.2967 25.5617 17.384 25.6011 17.4612 25.6317C17.4923 25.644 17.5175 25.6531 17.5373 25.6597C17.5578 25.6499 17.5849 25.6356 17.6187 25.6151C17.7262 25.5498 17.8522 25.4506 17.9782 25.327C18.0674 25.2395 18.1453 25.1509 18.2076 25.0708C18.1742 24.9998 18.1348 24.9199 18.0875 24.8238C18.0634 24.775 18.0374 24.7221 18.009 24.6642C17.8977 24.4367 17.7531 24.1335 17.6516 23.8214C17.5577 23.533 17.4404 23.0645 17.5539 22.5595L17.5547 22.5556C17.5552 22.5536 17.5557 22.5516 17.5561 22.5496C17.6227 22.2642 17.767 22.0331 17.8508 21.9096C17.9541 21.7573 18.0776 21.6084 18.2082 21.474C18.4178 21.2584 18.8433 20.8734 19.3985 20.7528C19.6546 20.6971 19.8897 20.7206 19.9978 20.7333C20.1361 20.7496 20.2754 20.7769 20.3975 20.804C20.6344 20.8566 20.9041 20.9311 21.1352 20.9949L21.1529 20.9997C21.4062 21.0697 21.617 21.1275 21.7852 21.1648C21.7873 21.1653 21.7895 21.1658 21.7916 21.1663C21.8374 21.1394 21.893 21.1039 21.9607 21.0577C22.0395 21.004 22.1158 20.949 22.2051 20.8847C22.2294 20.8672 22.2546 20.849 22.2811 20.83C22.3943 20.7487 22.5332 20.65 22.6752 20.5615C23.0233 20.3448 23.4555 20.3126 23.8319 20.4753C24.87 20.924 25.8004 21.107 27.0625 21.107C31.7703 21.107 35.5 17.4491 35.5 13.0445C35.5 8.64307 31.7735 5 27.0625 5ZM21.9347 21.1931C21.9338 21.193 21.9328 21.1929 21.9318 21.1928C21.9499 21.1938 21.9524 21.1952 21.9347 21.1931ZM29.25 10C29.0028 10 28.7611 10.0733 28.5555 10.2107C28.35 10.348 28.1898 10.5432 28.0951 10.7716C28.0005 11.0001 27.9758 11.2514 28.024 11.4939C28.0723 11.7363 28.1913 11.9591 28.3661 12.1339C28.5409 12.3087 28.7637 12.4278 29.0061 12.476C29.2486 12.5242 29.4999 12.4995 29.7284 12.4049C29.9568 12.3102 30.152 12.15 30.2893 11.9445C30.4267 11.7389 30.5 11.4972 30.5 11.25C30.5 10.9185 30.3683 10.6005 30.1339 10.3661C29.8995 10.1317 29.5815 10 29.25 10ZM27.1666 8.13199C27.7833 7.71993 28.5083 7.5 29.25 7.5C30.2446 7.5 31.1984 7.89509 31.9016 8.59835C32.6049 9.30161 33 10.2554 33 11.25C33 11.9917 32.7801 12.7167 32.368 13.3334C31.956 13.9501 31.3703 14.4307 30.6851 14.7146C29.9998 14.9984 29.2458 15.0726 28.5184 14.9279C27.791 14.7833 27.1228 14.4261 26.5983 13.9017C26.0739 13.3772 25.7167 12.709 25.5721 11.9816C25.4274 11.2542 25.5016 10.5002 25.7854 9.81494C26.0693 9.12972 26.5499 8.54405 27.1666 8.13199Z" fill="white"/>
</svg>
