<svg width="40" height="40" viewBox="0 0 40 40" fill="none" xmlns="http://www.w3.org/2000/svg">
<g clip-path="url(#clip0_98_185)">
<path d="M3.33331 4.58333C3.33331 3.36776 3.8162 2.20197 4.67574 1.34243C5.53528 0.482886 6.70107 0 7.91665 0H32.0833C32.4148 0 32.7328 0.131696 32.9672 0.366116C33.2016 0.600537 33.3333 0.918479 33.3333 1.25V14.5833C33.3333 14.9149 33.2016 15.2328 32.9672 15.4672C32.7328 15.7016 32.4148 15.8333 32.0833 15.8333C31.7518 15.8333 31.4339 15.7016 31.1994 15.4672C30.965 15.2328 30.8333 14.9149 30.8333 14.5833V2.5H7.91665C6.76665 2.5 5.83331 3.43333 5.83331 4.58333V25.6683C6.59316 25.2291 7.45564 24.9985 8.33331 25H18.75C19.0815 25 19.3994 25.1317 19.6339 25.3661C19.8683 25.6005 20 25.9185 20 26.25C20 26.5815 19.8683 26.8995 19.6339 27.1339C19.3994 27.3683 19.0815 27.5 18.75 27.5H8.33331C7.67027 27.5 7.03439 27.7634 6.56555 28.2322C6.09671 28.7011 5.83331 29.337 5.83331 30V32.0833C5.83331 33.2333 6.76665 34.1667 7.91665 34.1667H17.9166C18.2482 34.1667 18.5661 34.2984 18.8005 34.5328C19.035 34.7672 19.1666 35.0851 19.1666 35.4167C19.1666 35.7482 19.035 36.0661 18.8005 36.3005C18.5661 36.535 18.2482 36.6667 17.9166 36.6667H7.91665C6.70107 36.6667 5.53528 36.1838 4.67574 35.3242C3.8162 34.4647 3.33331 33.2989 3.33331 32.0833V4.58333Z" fill="white"/>
<path d="M25 24.1667C25 22.6196 25.6146 21.1358 26.7085 20.0419C27.8025 18.9479 29.2862 18.3333 30.8333 18.3333C32.3804 18.3333 33.8641 18.9479 34.9581 20.0419C36.0521 21.1358 36.6666 22.6196 36.6666 24.1667V26.6667H37.0833C38.6933 26.6667 40 27.9733 40 29.5833V37.0833C40 37.8569 39.6927 38.5987 39.1457 39.1457C38.5987 39.6927 37.8569 40 37.0833 40H24.5833C23.8098 40 23.0679 39.6927 22.5209 39.1457C21.9739 38.5987 21.6666 37.8569 21.6666 37.0833V29.5833C21.6666 27.9733 22.9733 26.6667 24.5833 26.6667H25V24.1667ZM30.8333 20.8333C29.9493 20.8333 29.1014 21.1845 28.4763 21.8096C27.8512 22.4348 27.5 23.2826 27.5 24.1667V26.6667H34.1666V24.1667C34.1666 23.2826 33.8155 22.4348 33.1903 21.8096C32.5652 21.1845 31.7174 20.8333 30.8333 20.8333Z" fill="white"/>
</g>
<defs>
<clipPath id="clip0_98_185">
<rect width="40" height="40" fill="white"/>
</clipPath>
</defs>
</svg>
